<svg width="1200" height="800" viewBox="0 0 1200 800" fill="none" xmlns="http://www.w3.org/2000/svg">
  <defs>
    <linearGradient id="bg2" x1="0" y1="0" x2="1" y2="1">
      <stop offset="0%" stop-color="#111827" />
      <stop offset="100%" stop-color="#0f172a" />
    </linearGradient>
    <linearGradient id="accent" x1="0" y1="0" x2="1" y2="1">
      <stop offset="0%" stop-color="#22c55e" />
      <stop offset="100%" stop-color="#0ea5e9" />
    </linearGradient>
  </defs>
  <rect width="1200" height="800" rx="48" fill="url(#bg2)" />
  <rect x="84" y="86" width="1020" height="620" rx="40" fill="#111827" stroke="#334155" stroke-width="4" />
  <rect x="132" y="140" width="276" height="64" rx="28" fill="#0f172a" stroke="#475569" stroke-width="3" />
  <rect x="132" y="232" width="188" height="16" rx="8" fill="#94a3b8" opacity="0.7" />
  <rect x="132" y="266" width="240" height="16" rx="8" fill="#8b5cf6" opacity="0.64" />
  <rect x="132" y="310" width="820" height="14" rx="7" fill="#475569" />
  <rect x="132" y="340" width="820" height="14" rx="7" fill="#475569" />
  <rect x="132" y="380" width="820" height="14" rx="7" fill="#475569" />
  <rect x="132" y="430" width="520" height="220" rx="28" fill="#020617" stroke="#334155" stroke-width="3" />
  <rect x="712" y="430" width="240" height="220" rx="28" fill="#020617" stroke="#334155" stroke-width="3" />
  <circle cx="378" cy="530" r="84" fill="url(#accent)" opacity="0.9" />
  <rect x="334" y="496" width="88" height="88" rx="22" fill="#f8fafc" />
  <rect x="542" y="496" width="148" height="88" rx="22" fill="#0f172a" stroke="#475569" stroke-width="2" />
  <rect x="560" y="520" width="110" height="20" rx="10" fill="#34d399" />
  <rect x="560" y="552" width="40" height="10" rx="5" fill="#a7f3d0" />
  <rect x="732" y="478" width="168" height="36" rx="18" fill="#0f172a" stroke="#475569" stroke-width="2" />
  <rect x="772" y="500" width="88" height="16" rx="8" fill="#7dd3fc" />
  <rect x="734" y="542" width="124" height="16" rx="8" fill="#c7d2fe" opacity="0.75" />
  <rect x="868" y="502" width="44" height="16" rx="8" fill="#22c55e" />
  <path d="M780 662H870" stroke="#0ea5e9" stroke-width="14" stroke-linecap="round" />
  <path d="M760 602L784 668" stroke="#22c55e" stroke-width="14" stroke-linecap="round" />
  <path d="M852 544L884 620" stroke="#7dd3fc" stroke-width="14" stroke-linecap="round" />
</svg>
