<svg width="1200" height="800" viewBox="0 0 1200 800" fill="none" xmlns="http://www.w3.org/2000/svg">
  <defs>
    <linearGradient id="bg" x1="0" y1="0" x2="1" y2="1">
      <stop offset="0%" stop-color="#1e293b" />
      <stop offset="100%" stop-color="#0f172a" />
    </linearGradient>
    <linearGradient id="card" x1="0" y1="0" x2="1" y2="1">
      <stop offset="0%" stop-color="#7c3aed" />
      <stop offset="100%" stop-color="#22d3ee" />
    </linearGradient>
  </defs>
  <rect width="1200" height="800" rx="48" fill="url(#bg)" />
  <rect x="80" y="72" width="440" height="236" rx="28" fill="#0f172a" stroke="#334155" stroke-width="4" />
  <rect x="92" y="120" width="304" height="18" rx="9" fill="#c7d2fe" opacity="0.92" />
  <rect x="92" y="156" width="240" height="12" rx="6" fill="#c7d2fe" opacity="0.7" />
  <rect x="92" y="192" width="360" height="12" rx="6" fill="#c7d2fe" opacity="0.5" />
  <path d="M132 292C132 266 154 244 180 244H354C380 244 402 266 402 292V420H132V292Z" fill="#111827" stroke="#475569" stroke-width="4" />
  <circle cx="252" cy="364" r="68" fill="url(#card)" opacity="0.95" />
  <circle cx="252" cy="364" r="30" fill="#f8fafc" />
  <path d="M458 102H958C973.255 102 986 114.745 986 130V622C986 637.255 973.255 650 958 650H458C442.745 650 430 637.255 430 622V130C430 114.745 442.745 102 458 102Z" fill="#111827" stroke="#475569" stroke-width="4" />
  <rect x="478" y="148" width="312" height="26" rx="13" fill="#c7d2fe" opacity="0.95" />
  <rect x="478" y="190" width="214" height="18" rx="9" fill="#e0f2fe" opacity="0.8" />
  <rect x="478" y="232" width="370" height="16" rx="8" fill="#94a3b8" opacity="0.55" />
  <path d="M478 296H850" stroke="#38bdf8" stroke-width="16" stroke-linecap="round" />
  <path d="M478 360H900" stroke="#7c3aed" stroke-width="16" stroke-linecap="round" />
  <path d="M478 424H700" stroke="#22c55e" stroke-width="16" stroke-linecap="round" />
  <circle cx="684" cy="502" r="74" fill="#1e293b" stroke="#334155" stroke-width="4" />
  <path d="M684 452V542" stroke="#38bdf8" stroke-width="16" stroke-linecap="round" />
  <path d="M634 502H734" stroke="#f8fafc" stroke-width="16" stroke-linecap="round" />
  <rect x="520" y="520" width="164" height="62" rx="16" fill="#111827" opacity="0.8" />
  <rect x="542" y="536" width="120" height="18" rx="9" fill="#c7d2fe" />
  <rect x="542" y="566" width="88" height="12" rx="6" fill="#94a3b8" />
</svg>
